<?xml version="1.0" encoding="UTF-8" standalone="no"?>
<!DOCTYPE svg PUBLIC "-//W3C//DTD SVG 1.1//EN"
 "http://www.w3.org/Graphics/SVG/1.1/DTD/svg11.dtd">
<!-- Generated by graphviz version 2.36.0 (20140111.2315)
 -->
<!-- Title: %3 Pages: 1 -->
<svg width="579pt" height="404pt"
 viewBox="0.00 0.00 579.00 404.00" xmlns="http://www.w3.org/2000/svg" xmlns:xlink="http://www.w3.org/1999/xlink">
<g id="graph0" class="graph" transform="scale(1 1) rotate(0) translate(4 400)">
<title>%3</title>
<polygon fill="#d1eeee" stroke="none" points="-4,4 -4,-400 575,-400 575,4 -4,4"/>
<text text-anchor="middle" x="285.5" y="-7.2" font-family="Helvetica,sans-Serif" font-size="16.00">Decision Tree for Iris Dataset</text>
<!-- Petal Length&gt;=2.45? -->
<g id="node1" class="node"><title>Petal Length&gt;=2.45?</title>
<polygon fill="#ee2c2c" stroke="black" points="432.639,-360.049 439.683,-360.148 446.654,-360.295 453.524,-360.491 460.264,-360.735 466.849,-361.027 473.251,-361.364 479.446,-361.748 485.411,-362.176 491.123,-362.647 496.561,-363.161 501.708,-363.715 506.545,-364.308 511.057,-364.939 515.231,-365.605 519.055,-366.306 522.521,-367.039 525.62,-367.801 528.347,-368.592 530.699,-369.408 532.674,-370.248 534.272,-371.109 535.496,-371.989 536.35,-372.886 536.839,-373.797 536.971,-374.719 536.754,-375.65 536.197,-376.587 535.314,-377.529 534.114,-378.471 532.612,-379.413 530.822,-380.35 528.758,-381.281 526.435,-382.203 523.868,-383.114 521.074,-384.011 518.067,-384.891 514.864,-385.752 511.479,-386.592 507.927,-387.408 504.225,-388.199 500.384,-388.961 496.42,-389.694 492.345,-390.395 488.171,-391.061 483.909,-391.692 479.571,-392.285 475.166,-392.839 470.703,-393.353 466.191,-393.824 461.636,-394.252 457.046,-394.636 452.426,-394.973 447.783,-395.265 443.119,-395.509 438.441,-395.705 433.751,-395.852 429.054,-395.951 424.352,-396 419.648,-396 414.946,-395.951 410.249,-395.852 405.559,-395.705 400.881,-395.509 396.217,-395.265 391.574,-394.973 386.954,-394.636 382.364,-394.252 377.809,-393.824 373.297,-393.353 368.834,-392.839 364.429,-392.285 360.091,-391.692 355.829,-391.061 351.655,-390.395 347.58,-389.694 343.616,-388.961 339.775,-388.199 336.073,-387.408 332.521,-386.592 329.136,-385.752 325.933,-384.891 322.926,-384.011 320.132,-383.114 317.565,-382.203 315.242,-381.281 313.178,-380.35 311.388,-379.413 309.886,-378.471 308.686,-377.529 307.803,-376.587 307.246,-375.65 307.029,-374.719 307.161,-373.797 307.65,-372.886 308.504,-371.989 309.728,-371.109 311.326,-370.248 313.301,-369.408 315.653,-368.592 318.38,-367.801 321.479,-367.039 324.945,-366.306 328.769,-365.605 332.943,-364.939 337.455,-364.308 342.292,-363.715 347.439,-363.161 352.877,-362.647 358.589,-362.176 364.554,-361.748 370.749,-361.364 377.151,-361.027 383.736,-360.735 390.476,-360.491 397.346,-360.295 404.317,-360.148 411.361,-360.049 418.449,-360 425.551,-360 432.639,-360.049"/>
<text text-anchor="middle" x="422" y="-375.044" font-family="Lucida Grande" font-size="14.00" fill="white">Petal Length&gt;=2.45?</text>
</g>
<!-- Petal Width&gt;=1.75? -->
<g id="node2" class="node"><title>Petal Width&gt;=1.75?</title>
<polygon fill="#ee2c2c" stroke="black" points="288.125,-276.049 294.829,-276.148 301.463,-276.295 308.001,-276.491 314.417,-276.735 320.683,-277.027 326.776,-277.364 332.672,-277.748 338.349,-278.176 343.785,-278.647 348.961,-279.161 353.859,-279.715 358.462,-280.308 362.756,-280.939 366.729,-281.605 370.369,-282.306 373.667,-283.039 376.616,-283.801 379.212,-284.592 381.45,-285.408 383.33,-286.248 384.851,-287.109 386.016,-287.989 386.828,-288.886 387.294,-289.797 387.419,-290.719 387.212,-291.65 386.683,-292.587 385.842,-293.529 384.7,-294.471 383.271,-295.413 381.567,-296.35 379.603,-297.281 377.392,-298.203 374.949,-299.114 372.29,-300.011 369.428,-300.891 366.379,-301.752 363.158,-302.592 359.778,-303.408 356.254,-304.199 352.599,-304.961 348.826,-305.694 344.948,-306.395 340.975,-307.061 336.92,-307.692 332.791,-308.285 328.599,-308.839 324.351,-309.353 320.057,-309.824 315.722,-310.252 311.354,-310.636 306.957,-310.973 302.538,-311.265 298.1,-311.509 293.647,-311.705 289.184,-311.852 284.713,-311.951 280.238,-312 275.762,-312 271.287,-311.951 266.816,-311.852 262.353,-311.705 257.9,-311.509 253.462,-311.265 249.043,-310.973 244.646,-310.636 240.278,-310.252 235.943,-309.824 231.649,-309.353 227.401,-308.839 223.209,-308.285 219.08,-307.692 215.025,-307.061 211.052,-306.395 207.174,-305.694 203.401,-304.961 199.746,-304.199 196.222,-303.408 192.842,-302.592 189.621,-301.752 186.572,-300.891 183.71,-300.011 181.051,-299.114 178.608,-298.203 176.397,-297.281 174.433,-296.35 172.729,-295.413 171.3,-294.471 170.158,-293.529 169.317,-292.587 168.788,-291.65 168.581,-290.719 168.706,-289.797 169.172,-288.886 169.984,-287.989 171.149,-287.109 172.67,-286.248 174.55,-285.408 176.788,-284.592 179.384,-283.801 182.333,-283.039 185.631,-282.306 189.271,-281.605 193.244,-280.939 197.538,-280.308 202.141,-279.715 207.039,-279.161 212.215,-278.647 217.651,-278.176 223.328,-277.748 229.224,-277.364 235.317,-277.027 241.583,-276.735 247.999,-276.491 254.537,-276.295 261.171,-276.148 267.875,-276.049 274.62,-276 281.38,-276 288.125,-276.049"/>
<text text-anchor="middle" x="278" y="-291.044" font-family="Lucida Grande" font-size="14.00" fill="white">Petal Width&gt;=1.75?</text>
</g>
<!-- Petal Length&gt;=2.45?&#45;&#45;Petal Width&gt;=1.75? -->
<g id="edge9" class="edge"><title>Petal Length&gt;=2.45?&#45;&#45;Petal Width&gt;=1.75?</title>
<path fill="none" stroke="black" stroke-dasharray="5,2" d="M392.859,-360.406C367.712,-346.086 331.596,-325.52 306.606,-311.289"/>
<text text-anchor="middle" x="366.201" y="-332.4" font-family="Courier,monospace" font-size="12.00">No</text>
</g>
<!-- Iris&#45;setosa -->
<g id="node7" class="node"><title>Iris&#45;setosa</title>
<polygon fill="#ee2c2c" stroke="black" points="475.935,-276.049 479.864,-276.148 483.753,-276.295 487.585,-276.491 491.346,-276.735 495.019,-277.027 498.59,-277.364 502.046,-277.748 505.374,-278.176 508.56,-278.647 511.594,-279.161 514.465,-279.715 517.163,-280.308 519.68,-280.939 522.009,-281.605 524.142,-282.306 526.076,-283.039 527.804,-283.801 529.326,-284.592 530.638,-285.408 531.739,-286.248 532.631,-287.109 533.314,-287.989 533.79,-288.886 534.063,-289.797 534.136,-290.719 534.015,-291.65 533.705,-292.587 533.212,-293.529 532.543,-294.471 531.705,-295.413 530.706,-296.35 529.555,-297.281 528.259,-298.203 526.827,-299.114 525.268,-300.011 523.591,-300.891 521.804,-301.752 519.916,-302.592 517.935,-303.408 515.869,-304.199 513.727,-304.961 511.515,-305.694 509.242,-306.395 506.913,-307.061 504.536,-307.692 502.116,-308.285 499.659,-308.839 497.169,-309.353 494.652,-309.824 492.111,-310.252 489.55,-310.636 486.973,-310.973 484.383,-311.265 481.781,-311.509 479.172,-311.705 476.556,-311.852 473.935,-311.951 471.312,-312 468.688,-312 466.065,-311.951 463.444,-311.852 460.828,-311.705 458.219,-311.509 455.617,-311.265 453.027,-310.973 450.45,-310.636 447.889,-310.252 445.348,-309.824 442.831,-309.353 440.341,-308.839 437.884,-308.285 435.464,-307.692 433.087,-307.061 430.758,-306.395 428.485,-305.694 426.273,-304.961 424.131,-304.199 422.065,-303.408 420.084,-302.592 418.196,-301.752 416.409,-300.891 414.732,-300.011 413.173,-299.114 411.741,-298.203 410.445,-297.281 409.294,-296.35 408.295,-295.413 407.457,-294.471 406.788,-293.529 406.295,-292.587 405.985,-291.65 405.864,-290.719 405.937,-289.797 406.21,-288.886 406.686,-287.989 407.369,-287.109 408.261,-286.248 409.362,-285.408 410.674,-284.592 412.196,-283.801 413.924,-283.039 415.858,-282.306 417.991,-281.605 420.32,-280.939 422.837,-280.308 425.535,-279.715 428.406,-279.161 431.44,-278.647 434.626,-278.176 437.954,-277.748 441.41,-277.364 444.981,-277.027 448.654,-276.735 452.415,-276.491 456.247,-276.295 460.136,-276.148 464.065,-276.049 468.019,-276 471.981,-276 475.935,-276.049"/>
<text text-anchor="middle" x="470" y="-291.044" font-family="Lucida Grande" font-size="14.00" fill="white">Iris&#45;setosa</text>
</g>
<!-- Petal Length&gt;=2.45?&#45;&#45;Iris&#45;setosa -->
<g id="edge3" class="edge"><title>Petal Length&gt;=2.45?&#45;&#45;Iris&#45;setosa</title>
<path fill="none" stroke="black" stroke-dasharray="5,2" d="M431.946,-360.01C440.239,-345.842 451.988,-325.77 460.231,-311.688"/>
<text text-anchor="middle" x="459.802" y="-332.4" font-family="Courier,monospace" font-size="12.00">Yes</text>
</g>
<!-- Sepal Length&gt;=7.1? -->
<g id="node3" class="node"><title>Sepal Length&gt;=7.1?</title>
<polygon fill="#ee2c2c" stroke="black" points="216.272,-192.049 223.073,-192.148 229.803,-192.295 236.436,-192.491 242.944,-192.735 249.302,-193.027 255.483,-193.364 261.464,-193.748 267.223,-194.176 272.738,-194.647 277.989,-195.161 282.958,-195.715 287.628,-196.308 291.984,-196.939 296.014,-197.605 299.707,-198.306 303.053,-199.039 306.045,-199.801 308.678,-200.592 310.949,-201.408 312.856,-202.248 314.399,-203.109 315.581,-203.989 316.405,-204.886 316.877,-205.797 317.004,-206.719 316.795,-207.65 316.258,-208.587 315.404,-209.529 314.246,-210.471 312.796,-211.413 311.068,-212.35 309.075,-213.281 306.832,-214.203 304.354,-215.114 301.656,-216.011 298.753,-216.891 295.66,-217.752 292.392,-218.592 288.963,-219.408 285.388,-220.199 281.68,-220.961 277.852,-221.694 273.918,-222.395 269.888,-223.061 265.773,-223.692 261.585,-224.285 257.332,-224.839 253.023,-225.353 248.666,-225.824 244.269,-226.252 239.837,-226.636 235.377,-226.973 230.893,-227.265 226.391,-227.509 221.874,-227.705 217.346,-227.852 212.811,-227.951 208.271,-228 203.729,-228 199.189,-227.951 194.654,-227.852 190.126,-227.705 185.609,-227.509 181.107,-227.265 176.623,-226.973 172.163,-226.636 167.731,-226.252 163.334,-225.824 158.977,-225.353 154.668,-224.839 150.415,-224.285 146.227,-223.692 142.112,-223.061 138.082,-222.395 134.148,-221.694 130.32,-220.961 126.612,-220.199 123.037,-219.408 119.608,-218.592 116.34,-217.752 113.247,-216.891 110.344,-216.011 107.646,-215.114 105.168,-214.203 102.925,-213.281 100.932,-212.35 99.2037,-211.413 97.7538,-210.471 96.5957,-209.529 95.7423,-208.587 95.2054,-207.65 94.9956,-206.719 95.1226,-205.797 95.5949,-204.886 96.4192,-203.989 97.6011,-203.109 99.1444,-202.248 101.051,-201.408 103.322,-200.592 105.955,-199.801 108.947,-199.039 112.293,-198.306 115.986,-197.605 120.016,-196.939 124.372,-196.308 129.042,-195.715 134.011,-195.161 139.262,-194.647 144.777,-194.176 150.536,-193.748 156.517,-193.364 162.698,-193.027 169.056,-192.735 175.564,-192.491 182.197,-192.295 188.927,-192.148 195.728,-192.049 202.571,-192 209.429,-192 216.272,-192.049"/>
<text text-anchor="middle" x="206" y="-207.044" font-family="Lucida Grande" font-size="14.00" fill="white">Sepal Length&gt;=7.1?</text>
</g>
<!-- Petal Width&gt;=1.75?&#45;&#45;Sepal Length&gt;=7.1? -->
<g id="edge6" class="edge"><title>Petal Width&gt;=1.75?&#45;&#45;Sepal Length&gt;=7.1?</title>
<path fill="none" stroke="black" stroke-dasharray="5,2" d="M263.082,-276.01C250.725,-261.936 233.251,-242.036 220.899,-227.969"/>
<text text-anchor="middle" x="257.802" y="-248.4" font-family="Courier,monospace" font-size="12.00">Yes</text>
</g>
<!-- Sepal Length&gt;=5.95? -->
<g id="node5" class="node"><title>Sepal Length&gt;=5.95?</title>
<polygon fill="#ee2c2c" stroke="black" points="463.841,-192.049 471.018,-192.148 478.122,-192.295 485.122,-192.491 491.99,-192.735 498.699,-193.027 505.223,-193.364 511.536,-193.748 517.613,-194.176 523.434,-194.647 528.975,-195.161 534.219,-195.715 539.148,-196.308 543.746,-196.939 547.999,-197.605 551.896,-198.306 555.427,-199.039 558.585,-199.801 561.364,-200.592 563.76,-201.408 565.773,-202.248 567.401,-203.109 568.649,-203.989 569.519,-204.886 570.017,-205.797 570.151,-206.719 569.93,-207.65 569.363,-208.587 568.462,-209.529 567.24,-210.471 565.71,-211.413 563.886,-212.35 561.783,-213.281 559.415,-214.203 556.8,-215.114 553.953,-216.011 550.889,-216.891 547.625,-217.752 544.176,-218.592 540.557,-219.408 536.784,-220.199 532.871,-220.961 528.831,-221.694 524.679,-222.395 520.425,-223.061 516.083,-223.692 511.663,-224.285 507.174,-224.839 502.627,-225.353 498.029,-225.824 493.388,-226.252 488.711,-226.636 484.003,-226.973 479.271,-227.265 474.52,-227.509 469.753,-227.705 464.974,-227.852 460.188,-227.951 455.396,-228 450.604,-228 445.812,-227.951 441.026,-227.852 436.247,-227.705 431.48,-227.509 426.729,-227.265 421.997,-226.973 417.289,-226.636 412.612,-226.252 407.971,-225.824 403.373,-225.353 398.826,-224.839 394.337,-224.285 389.917,-223.692 385.575,-223.061 381.321,-222.395 377.169,-221.694 373.129,-220.961 369.216,-220.199 365.443,-219.408 361.824,-218.592 358.375,-217.752 355.111,-216.891 352.047,-216.011 349.2,-215.114 346.585,-214.203 344.217,-213.281 342.114,-212.35 340.29,-211.413 338.76,-210.471 337.538,-209.529 336.637,-208.587 336.07,-207.65 335.849,-206.719 335.983,-205.797 336.481,-204.886 337.351,-203.989 338.599,-203.109 340.227,-202.248 342.24,-201.408 344.636,-200.592 347.415,-199.801 350.573,-199.039 354.104,-198.306 358.001,-197.605 362.254,-196.939 366.852,-196.308 371.781,-195.715 377.025,-195.161 382.566,-194.647 388.387,-194.176 394.464,-193.748 400.777,-193.364 407.301,-193.027 414.01,-192.735 420.878,-192.491 427.878,-192.295 434.982,-192.148 442.159,-192.049 449.381,-192 456.619,-192 463.841,-192.049"/>
<text text-anchor="middle" x="453" y="-207.044" font-family="Lucida Grande" font-size="14.00" fill="white">Sepal Length&gt;=5.95?</text>
</g>
<!-- Petal Width&gt;=1.75?&#45;&#45;Sepal Length&gt;=5.95? -->
<g id="edge12" class="edge"><title>Petal Width&gt;=1.75?&#45;&#45;Sepal Length&gt;=5.95?</title>
<path fill="none" stroke="black" stroke-dasharray="5,2" d="M312.993,-276.603C343.914,-262.114 388.717,-241.121 419.257,-226.811"/>
<text text-anchor="middle" x="383.201" y="-248.4" font-family="Courier,monospace" font-size="12.00">No</text>
</g>
<!-- Sepal Width&gt;=2.85? -->
<g id="node4" class="node"><title>Sepal Width&gt;=2.85?</title>
<polygon fill="#ee2c2c" stroke="black" points="122.373,-108.049 129.241,-108.148 136.038,-108.295 142.736,-108.491 149.308,-108.735 155.728,-109.027 161.971,-109.364 168.011,-109.748 173.827,-110.176 179.396,-110.647 184.699,-111.161 189.717,-111.715 194.433,-112.308 198.832,-112.939 202.902,-113.605 206.631,-114.306 210.01,-115.039 213.032,-115.801 215.691,-116.592 217.984,-117.408 219.909,-118.248 221.468,-119.109 222.661,-119.989 223.494,-120.886 223.971,-121.797 224.099,-122.719 223.887,-123.65 223.345,-124.587 222.483,-125.529 221.314,-126.471 219.849,-127.413 218.104,-128.35 216.091,-129.281 213.826,-130.203 211.324,-131.114 208.599,-132.011 205.667,-132.891 202.544,-133.752 199.243,-134.592 195.781,-135.408 192.171,-136.199 188.426,-136.961 184.561,-137.694 180.587,-138.395 176.518,-139.061 172.363,-139.692 168.133,-140.285 163.838,-140.839 159.487,-141.353 155.087,-141.824 150.646,-142.252 146.17,-142.636 141.666,-142.973 137.138,-143.265 132.592,-143.509 128.03,-143.705 123.458,-143.852 118.878,-143.951 114.293,-144 109.707,-144 105.122,-143.951 100.542,-143.852 95.9696,-143.705 91.4082,-143.509 86.8615,-143.265 82.3337,-142.973 77.8295,-142.636 73.3541,-142.252 68.9132,-141.824 64.5134,-141.353 60.1621,-140.839 55.8671,-140.285 51.6373,-139.692 47.4823,-139.061 43.4125,-138.395 39.439,-137.694 35.5738,-136.961 31.8294,-136.199 28.219,-135.408 24.7565,-134.592 21.4561,-133.752 18.3326,-132.891 15.4009,-132.011 12.6763,-131.114 10.1738,-130.203 7.90885,-129.281 5.89626,-128.35 4.15075,-127.413 2.68648,-126.471 1.51703,-125.529 0.655212,-124.587 0.112938,-123.65 -0.0989045,-122.719 0.0294009,-121.797 0.50628,-120.886 1.33874,-119.989 2.53229,-119.109 4.09078,-118.248 6.01637,-117.408 8.30943,-116.592 10.9685,-115.801 13.9901,-115.039 17.3691,-114.306 21.0981,-113.605 25.1679,-112.939 29.5674,-112.308 34.2834,-111.715 39.3012,-111.161 44.6038,-110.647 50.173,-110.176 55.9887,-109.748 62.0292,-109.364 68.2715,-109.027 74.6915,-108.735 81.2637,-108.491 87.9619,-108.295 94.7588,-108.148 101.627,-108.049 108.537,-108 115.463,-108 122.373,-108.049"/>
<text text-anchor="middle" x="112" y="-123.044" font-family="Lucida Grande" font-size="14.00" fill="white">Sepal Width&gt;=2.85?</text>
</g>
<!-- Sepal Length&gt;=7.1?&#45;&#45;Sepal Width&gt;=2.85? -->
<g id="edge5" class="edge"><title>Sepal Length&gt;=7.1?&#45;&#45;Sepal Width&gt;=2.85?</title>
<path fill="none" stroke="black" stroke-dasharray="5,2" d="M186.523,-192.01C170.283,-177.842 147.273,-157.77 131.13,-143.688"/>
<text text-anchor="middle" x="175.802" y="-164.4" font-family="Courier,monospace" font-size="12.00">Yes</text>
</g>
<!-- Iris&#45;virginica -->
<g id="node8" class="node"><title>Iris&#45;virginica</title>
<polygon fill="#ee2c2c" stroke="black" points="404.863,-24.0493 409.407,-24.1479 413.904,-24.2953 418.336,-24.4913 422.684,-24.7353 426.932,-25.0266 431.062,-25.3645 435.059,-25.7479 438.906,-26.1759 442.591,-26.6472 446.1,-27.1606 449.419,-27.7147 452.54,-28.308 455.451,-28.9388 458.143,-29.6054 460.61,-30.3059 462.846,-31.0385 464.845,-31.8012 466.605,-32.5918 468.122,-33.4082 469.396,-34.2481 470.427,-35.1093 471.217,-35.9894 471.767,-36.886 472.083,-37.7965 472.168,-38.7186 472.028,-39.6497 471.669,-40.5873 471.099,-41.5287 470.325,-42.4713 469.356,-43.4127 468.201,-44.3503 466.87,-45.2814 465.371,-46.2035 463.715,-47.114 461.913,-48.0106 459.973,-48.8907 457.906,-49.7519 455.723,-50.5918 453.432,-51.4082 451.043,-52.1988 448.566,-52.9615 446.008,-53.6941 443.379,-54.3946 440.687,-55.0612 437.938,-55.692 435.139,-56.2853 432.297,-56.8394 429.418,-57.3528 426.507,-57.8241 423.569,-58.2521 420.608,-58.6355 417.628,-58.9734 414.632,-59.2647 411.624,-59.5087 408.606,-59.7047 405.581,-59.8521 402.55,-59.9507 399.517,-60 396.483,-60 393.45,-59.9507 390.419,-59.8521 387.394,-59.7047 384.376,-59.5087 381.368,-59.2647 378.372,-58.9734 375.392,-58.6355 372.431,-58.2521 369.493,-57.8241 366.582,-57.3528 363.703,-56.8394 360.861,-56.2853 358.062,-55.692 355.313,-55.0612 352.621,-54.3946 349.992,-53.6941 347.434,-52.9615 344.957,-52.1988 342.568,-51.4082 340.277,-50.5918 338.094,-49.7519 336.027,-48.8907 334.087,-48.0106 332.285,-47.114 330.629,-46.2035 329.13,-45.2814 327.799,-44.3503 326.644,-43.4127 325.675,-42.4713 324.901,-41.5287 324.331,-40.5873 323.972,-39.6497 323.832,-38.7186 323.917,-37.7965 324.233,-36.886 324.783,-35.9894 325.573,-35.1093 326.604,-34.2481 327.878,-33.4082 329.395,-32.5918 331.155,-31.8012 333.154,-31.0385 335.39,-30.3059 337.857,-29.6054 340.549,-28.9388 343.46,-28.308 346.581,-27.7147 349.9,-27.1606 353.409,-26.6472 357.094,-26.1759 360.941,-25.7479 364.938,-25.3645 369.068,-25.0266 373.316,-24.7353 377.664,-24.4913 382.096,-24.2953 386.593,-24.1479 391.137,-24.0493 395.709,-24 400.291,-24 404.863,-24.0493"/>
<text text-anchor="middle" x="398" y="-39.0441" font-family="Lucida Grande" font-size="14.00" fill="white">Iris&#45;virginica</text>
</g>
<!-- Sepal Length&gt;=7.1?&#45;&#45;Iris&#45;virginica -->
<g id="edge8" class="edge"><title>Sepal Length&gt;=7.1?&#45;&#45;Iris&#45;virginica</title>
<path fill="none" stroke="black" stroke-dasharray="5,2" d="M212.844,-191.941C225.914,-160.143 254.828,-93.6168 274,-78 292.037,-63.3079 315.884,-54.7767 337.843,-49.8255"/>
<text text-anchor="middle" x="260.201" y="-122.4" font-family="Courier,monospace" font-size="12.00">No</text>
</g>
<!-- Iris&#45;versicolor -->
<g id="node9" class="node"><title>Iris&#45;versicolor</title>
<polygon fill="#ee2c2c" stroke="black" points="164.46,-24.0493 169.398,-24.1479 174.286,-24.2953 179.103,-24.4913 183.829,-24.7353 188.446,-25.0266 192.935,-25.3645 197.279,-25.7479 201.461,-26.1759 205.466,-26.6472 209.279,-27.1606 212.887,-27.7147 216.279,-28.308 219.442,-28.9388 222.369,-29.6054 225.051,-30.3059 227.48,-31.0385 229.653,-31.8012 231.566,-32.5918 233.215,-33.4082 234.599,-34.2481 235.72,-35.1093 236.578,-35.9894 237.177,-36.886 237.52,-37.7965 237.612,-38.7186 237.46,-39.6497 237.07,-40.5873 236.45,-41.5287 235.609,-42.4713 234.556,-43.4127 233.301,-44.3503 231.854,-45.2814 230.225,-46.2035 228.425,-47.114 226.466,-48.0106 224.358,-48.8907 222.112,-49.7519 219.738,-50.5918 217.248,-51.4082 214.652,-52.1988 211.959,-52.9615 209.18,-53.6941 206.322,-54.3946 203.396,-55.0612 200.408,-55.692 197.366,-56.2853 194.278,-56.8394 191.148,-57.3528 187.984,-57.8241 184.791,-58.2521 181.573,-58.6355 178.333,-58.9734 175.077,-59.2647 171.808,-59.5087 168.528,-59.7047 165.24,-59.8521 161.946,-59.9507 158.649,-60 155.351,-60 152.054,-59.9507 148.76,-59.8521 145.472,-59.7047 142.192,-59.5087 138.923,-59.2647 135.667,-58.9734 132.427,-58.6355 129.209,-58.2521 126.016,-57.8241 122.852,-57.3528 119.722,-56.8394 116.634,-56.2853 113.592,-55.692 110.604,-55.0612 107.678,-54.3946 104.82,-53.6941 102.041,-52.9615 99.348,-52.1988 96.7517,-51.4082 94.2618,-50.5918 91.8884,-49.7519 89.6423,-48.8907 87.534,-48.0106 85.5747,-47.114 83.7752,-46.2035 82.1464,-45.2814 80.6991,-44.3503 79.4438,-43.4127 78.3909,-42.4713 77.5499,-41.5287 76.9301,-40.5873 76.5402,-39.6497 76.3879,-38.7186 76.4801,-37.7965 76.823,-36.886 77.4217,-35.9894 78.28,-35.1093 79.4007,-34.2481 80.7854,-33.4082 82.4344,-32.5918 84.3466,-31.8012 86.5195,-31.0385 88.9494,-30.3059 91.631,-29.6054 94.5576,-28.9388 97.7213,-28.308 101.113,-27.7147 104.721,-27.1606 108.534,-26.6472 112.539,-26.1759 116.721,-25.7479 121.065,-25.3645 125.554,-25.0266 130.171,-24.7353 134.897,-24.4913 139.714,-24.2953 144.602,-24.1479 149.54,-24.0493 154.51,-24 159.49,-24 164.46,-24.0493"/>
<text text-anchor="middle" x="157" y="-39.0441" font-family="Lucida Grande" font-size="14.00" fill="white">Iris&#45;versicolor</text>
</g>
<!-- Sepal Width&gt;=2.85?&#45;&#45;Iris&#45;versicolor -->
<g id="edge2" class="edge"><title>Sepal Width&gt;=2.85?&#45;&#45;Iris&#45;versicolor</title>
<path fill="none" stroke="black" stroke-dasharray="5,2" d="M109.132,-107.626C108.415,-98.3713 108.884,-87.061 113.396,-78 117.205,-70.3535 123.547,-63.8282 130.231,-58.5569"/>
<text text-anchor="middle" x="124.802" y="-80.4" font-family="Courier,monospace" font-size="12.00">Yes</text>
</g>
<!-- Sepal Width&gt;=2.85?&#45;&#45;Iris&#45;versicolor -->
<g id="edge7" class="edge"><title>Sepal Width&gt;=2.85?&#45;&#45;Iris&#45;versicolor</title>
<path fill="none" stroke="black" stroke-dasharray="5,2" d="M123.969,-107.859C127.679,-102.27 131.666,-95.9663 135,-90 140.362,-80.405 145.61,-69.281 149.634,-60.2645"/>
<text text-anchor="middle" x="148.201" y="-80.4" font-family="Courier,monospace" font-size="12.00">No</text>
</g>
<!-- Sepal Width&gt;=3.1? -->
<g id="node6" class="node"><title>Sepal Width&gt;=3.1?</title>
<polygon fill="#ee2c2c" stroke="black" points="407.758,-108.049 414.219,-108.148 420.613,-108.295 426.914,-108.491 433.096,-108.735 439.136,-109.027 445.008,-109.364 450.69,-109.748 456.161,-110.176 461.4,-110.647 466.389,-111.161 471.109,-111.715 475.545,-112.308 479.684,-112.939 483.512,-113.605 487.02,-114.306 490.199,-115.039 493.041,-115.801 495.543,-116.592 497.7,-117.408 499.511,-118.248 500.977,-119.109 502.1,-119.989 502.883,-120.886 503.332,-121.797 503.453,-122.719 503.253,-123.65 502.743,-124.587 501.932,-125.529 500.832,-126.471 499.455,-127.413 497.813,-128.35 495.92,-129.281 493.789,-130.203 491.435,-131.114 488.872,-132.011 486.114,-132.891 483.176,-133.752 480.071,-134.592 476.814,-135.408 473.417,-136.199 469.895,-136.961 466.259,-137.694 462.521,-138.395 458.692,-139.061 454.784,-139.692 450.805,-140.285 446.764,-140.839 442.671,-141.353 438.532,-141.824 434.355,-142.252 430.145,-142.636 425.907,-142.973 421.648,-143.265 417.371,-143.509 413.08,-143.705 408.779,-143.852 404.47,-143.951 400.157,-144 395.843,-144 391.53,-143.951 387.221,-143.852 382.92,-143.705 378.629,-143.509 374.352,-143.265 370.093,-142.973 365.855,-142.636 361.645,-142.252 357.468,-141.824 353.329,-141.353 349.236,-140.839 345.195,-140.285 341.216,-139.692 337.308,-139.061 333.479,-138.395 329.741,-137.694 326.105,-136.961 322.583,-136.199 319.186,-135.408 315.929,-134.592 312.824,-133.752 309.886,-132.891 307.128,-132.011 304.565,-131.114 302.211,-130.203 300.08,-129.281 298.187,-128.35 296.545,-127.413 295.168,-126.471 294.068,-125.529 293.257,-124.587 292.747,-123.65 292.547,-122.719 292.668,-121.797 293.117,-120.886 293.9,-119.989 295.023,-119.109 296.489,-118.248 298.3,-117.408 300.457,-116.592 302.959,-115.801 305.801,-115.039 308.98,-114.306 312.488,-113.605 316.316,-112.939 320.455,-112.308 324.891,-111.715 329.611,-111.161 334.6,-110.647 339.839,-110.176 345.31,-109.748 350.992,-109.364 356.864,-109.027 362.904,-108.735 369.086,-108.491 375.387,-108.295 381.781,-108.148 388.242,-108.049 394.743,-108 401.257,-108 407.758,-108.049"/>
<text text-anchor="middle" x="398" y="-123.044" font-family="Lucida Grande" font-size="14.00" fill="white">Sepal Width&gt;=3.1?</text>
</g>
<!-- Sepal Length&gt;=5.95?&#45;&#45;Sepal Width&gt;=3.1? -->
<g id="edge4" class="edge"><title>Sepal Length&gt;=5.95?&#45;&#45;Sepal Width&gt;=3.1?</title>
<path fill="none" stroke="black" stroke-dasharray="5,2" d="M441.604,-192.01C432.165,-177.936 418.817,-158.036 409.381,-143.969"/>
<text text-anchor="middle" x="439.802" y="-164.4" font-family="Courier,monospace" font-size="12.00">Yes</text>
</g>
<!-- Sepal Length&gt;=5.95?&#45;&#45;Iris&#45;virginica -->
<g id="edge10" class="edge"><title>Sepal Length&gt;=5.95?&#45;&#45;Iris&#45;virginica</title>
<path fill="none" stroke="black" stroke-dasharray="5,2" d="M474.784,-192.216C498.005,-172.186 529.24,-137.675 512,-108 496.664,-81.6025 466.149,-65.0307 440.546,-55.2309"/>
<text text-anchor="middle" x="524.201" y="-122.4" font-family="Courier,monospace" font-size="12.00">No</text>
</g>
<!-- Sepal Width&gt;=3.1?&#45;&#45;Iris&#45;virginica -->
<g id="edge1" class="edge"><title>Sepal Width&gt;=3.1?&#45;&#45;Iris&#45;virginica</title>
<path fill="none" stroke="black" stroke-dasharray="5,2" d="M398,-107.61C398,-93.6002 398,-74.0114 398,-60.0838"/>
<text text-anchor="middle" x="408.802" y="-80.4" font-family="Courier,monospace" font-size="12.00">Yes</text>
</g>
<!-- Sepal Width&gt;=3.1?&#45;&#45;Iris&#45;versicolor -->
<g id="edge11" class="edge"><title>Sepal Width&gt;=3.1?&#45;&#45;Iris&#45;versicolor</title>
<path fill="none" stroke="black" stroke-dasharray="5,2" d="M351.818,-109.287C306.851,-93.9868 239.232,-70.9794 196.64,-56.4873"/>
<text text-anchor="middle" x="299.201" y="-80.4" font-family="Courier,monospace" font-size="12.00">No</text>
</g>
</g>
</svg>
